<svg xmlns="http://www.w3.org/2000/svg" width="1675.646" height="152" viewBox="0 0 1675.646 152">
  <defs>
    <style>
      .cls-1 {
        fill: #fe7a19;
      }
    </style>
  </defs>
  <g id="Group_12" data-name="Group 12" transform="translate(-122.365 -141)">
    <rect id="Rectangle_2" data-name="Rectangle 2" class="cls-1" width="1655" height="152" transform="translate(133 141)"/>
    <path id="Path_13" data-name="Path 13" class="cls-1" d="M1918.468,78.276l-9.235,10.19-10.094-10.19-9.177,10.19-9.177-10.19-9.635,10.19-9.177-10.19-9.635,10.19-9.635-10.19-10.094,10.19-9.635-10.19-8.259,10.19-10.094-10.19-9.635,10.19-9.177-10.19-8.718,10.19-10.623-10.19V74.82h152Z" transform="translate(1709.545 2059.468) rotate(-90)"/>
    <path id="Path_14" data-name="Path 14" class="cls-1" d="M1918.468,78.276l-9.235,10.19-10.094-10.19-9.177,10.19-9.177-10.19-9.635,10.19-9.177-10.19-9.635,10.19-9.635-10.19-10.094,10.19-9.635-10.19-8.259,10.19-10.094-10.19-9.635,10.19-9.177-10.19-8.718,10.19-10.623-10.19V74.82h152Z" transform="translate(210.831 -1625.468) rotate(90)"/>
  </g>
</svg>
